<svg height="942" width="720" xmlns="http://www.w3.org/2000/svg">
<rect height="942" fill="#555" width="720"></rect>
<text fill="#7f7" font-family="Courier New" font-size="12" xml:space="preserve">
<tspan x="10" y="26">└─┬ db-migrate@0.10.0-beta.20 </tspan>
<tspan x="10" y="42">  ├── balanced-match@0.4.2 </tspan>
<tspan x="10" y="58">  ├── bluebird@3.5.0 </tspan>
<tspan x="10" y="74">  ├── db-migrate-shared@1.1.3 </tspan>
<tspan x="10" y="90">  ├── dotenv@2.0.0 </tspan>
<tspan x="10" y="106">  ├─┬ final-fs@1.6.1 </tspan>
<tspan x="10" y="122">  │ ├── node-fs@0.1.7 </tspan>
<tspan x="10" y="138">  │ └── when@2.0.1 </tspan>
<tspan x="10" y="154">  ├── inflection@1.12.0 </tspan>
<tspan x="10" y="170">  ├─┬ mkdirp@0.5.1 </tspan>
<tspan x="10" y="186">  │ └── minimist@0.0.8 </tspan>
<tspan x="10" y="202">  ├── moment@2.18.1 </tspan>
<tspan x="10" y="218">  ├─┬ optimist@0.6.1 </tspan>
<tspan x="10" y="234">  │ └── wordwrap@0.0.3 </tspan>
<tspan x="10" y="250">  ├─┬ parse-database-url@0.3.0 </tspan>
<tspan x="10" y="266">  │ └── mongodb-uri@0.9.7 </tspan>
<tspan x="10" y="282">  ├── pkginfo@0.4.0 </tspan>
<tspan x="10" y="298">  ├─┬ prompt@1.0.0 </tspan>
<tspan x="10" y="314">  │ ├── colors@1.1.2 </tspan>
<tspan x="10" y="330">  │ ├─┬ read@1.0.7 </tspan>
<tspan x="10" y="346">  │ │ └── mute-stream@0.0.7 </tspan>
<tspan x="10" y="362">  │ ├── revalidator@0.1.8 </tspan>
<tspan x="10" y="378">  │ ├─┬ utile@0.3.0 </tspan>
<tspan x="10" y="394">  │ │ ├── async@0.9.2 </tspan>
<tspan x="10" y="410">  │ │ ├── deep-equal@0.2.2 </tspan>
<tspan x="10" y="426">  │ │ ├── i@0.3.5 </tspan>
<tspan x="10" y="442">  │ │ ├── ncp@1.0.1 </tspan>
<tspan x="10" y="458">  │ │ └─┬ rimraf@2.6.1 </tspan>
<tspan x="10" y="474">  │ │   └─┬ glob@7.1.1 </tspan>
<tspan x="10" y="490">  │ │     ├── fs.realpath@1.0.0 </tspan>
<tspan x="10" y="506">  │ │     ├─┬ inflight@1.0.6 </tspan>
<tspan x="10" y="522">  │ │     │ └── wrappy@1.0.2 </tspan>
<tspan x="10" y="538">  │ │     ├── inherits@2.0.3 </tspan>
<tspan x="10" y="554">  │ │     ├─┬ minimatch@3.0.3 </tspan>
<tspan x="10" y="570">  │ │     │ └─┬ brace-expansion@1.1.6 </tspan>
<tspan x="10" y="586">  │ │     │   └── concat-map@0.0.1 </tspan>
<tspan x="10" y="602">  │ │     ├── once@1.4.0 </tspan>
<tspan x="10" y="618">  │ │     └── path-is-absolute@1.0.1 </tspan>
<tspan x="10" y="634">  │ └─┬ winston@2.1.1 </tspan>
<tspan x="10" y="650">  │   ├── async@1.0.0 </tspan>
<tspan x="10" y="666">  │   ├── colors@1.0.3 </tspan>
<tspan x="10" y="682">  │   ├── cycle@1.0.3 </tspan>
<tspan x="10" y="698">  │   ├── eyes@0.1.8 </tspan>
<tspan x="10" y="714">  │   ├── isstream@0.1.2 </tspan>
<tspan x="10" y="730">  │   ├── pkginfo@0.3.1 </tspan>
<tspan x="10" y="746">  │   └── stack-trace@0.0.9 </tspan>
<tspan x="10" y="762">  ├─┬ resolve@1.3.2 </tspan>
<tspan x="10" y="778">  │ └── path-parse@1.0.5 </tspan>
<tspan x="10" y="794">  ├── semver@5.3.0 </tspan>
<tspan x="10" y="810">  └─┬ tunnel-ssh@4.1.2 </tspan>
<tspan x="10" y="826">    ├─┬ debug@2.6.0 </tspan>
<tspan x="10" y="842">    │ └── ms@0.7.2 </tspan>
<tspan x="10" y="858">    ├── lodash.defaults@4.2.0 </tspan>
<tspan x="10" y="874">    └─┬ ssh2@0.5.4 </tspan>
<tspan x="10" y="890">      └─┬ ssh2-streams@0.1.16 </tspan>
<tspan x="10" y="906">        ├── asn1@0.2.3 </tspan>
<tspan x="10" y="922">        └── streamsearch@0.1.2</tspan>
</text>
</svg>
